<svg 
 xmlns="http://www.w3.org/2000/svg"
 xmlns:xlink="http://www.w3.org/1999/xlink"
 width="52px" height="36px">
<defs>
<filter id="Filter_0">
    <feFlood flood-color="rgb(85, 85, 85)" flood-opacity="1" result="floodOut" />
    <feComposite operator="atop" in="floodOut" in2="SourceGraphic" result="compOut" />
    <feBlend mode="normal" in="compOut" in2="SourceGraphic" />
</filter>

</defs>
<g filter="url(#Filter_0)">
<path fill-rule="evenodd"  fill="rgb(0, 0, 0)"
 d="M51.411,14.341 L41.921,33.763 C41.326,34.984 39.729,35.984 38.378,35.984 L3.080,35.984 C1.730,35.984 1.112,34.982 1.711,33.763 L11.203,14.341 C11.796,13.118 13.392,12.115 14.742,12.115 L50.040,12.115 C51.394,12.115 52.009,13.118 51.411,14.341 ZM9.000,13.245 L0.738,30.147 L0.738,7.983 C0.738,6.619 1.843,5.501 3.196,5.502 L14.012,5.502 L14.012,4.058 C14.012,3.063 14.394,2.135 15.094,1.430 C15.793,0.723 16.717,0.335 17.701,0.335 L23.991,0.335 C26.020,0.335 27.675,2.002 27.675,4.058 L27.675,5.501 L38.491,5.501 C39.842,5.501 40.949,6.619 40.949,7.983 L40.949,9.637 L14.742,9.637 C12.475,9.637 10.002,11.187 9.000,13.245 ZM16.470,5.502 L25.217,5.502 L25.217,4.058 C25.217,3.370 24.667,2.815 23.989,2.815 L17.698,2.815 C17.372,2.815 17.063,2.945 16.832,3.183 C16.602,3.417 16.470,3.730 16.470,4.058 L16.470,5.502 Z"/>
</g>
</svg>