<svg 
 xmlns="http://www.w3.org/2000/svg"
 xmlns:xlink="http://www.w3.org/1999/xlink"
 width="49px" height="49px">

<g >
<path fill="currentColor"
 d="M47.668,19.717 L33.402,33.985 L0.534,48.463 L15.011,15.591 L29.279,1.327 C29.898,0.706 30.904,0.706 31.527,1.327 C32.148,1.950 32.148,2.955 31.527,3.576 L17.683,17.422 L9.107,36.888 L12.106,39.887 L31.573,31.314 L45.420,17.470 C46.039,16.847 47.043,16.847 47.668,17.470 C48.289,18.090 48.289,19.100 47.668,19.717 ZM29.745,28.466 C29.434,28.773 29.028,28.931 28.620,28.931 C28.211,28.931 27.805,28.773 27.495,28.466 C26.875,27.843 26.875,26.836 27.495,26.216 L40.827,12.885 C41.450,12.260 42.454,12.260 43.077,12.885 C43.700,13.505 43.700,14.510 43.077,15.134 L29.745,28.466 ZM26.265,24.985 C25.955,25.293 25.549,25.450 25.140,25.450 C24.734,25.450 24.326,25.293 24.015,24.985 C23.394,24.364 23.394,23.354 24.015,22.735 L37.348,9.403 C37.970,8.780 38.974,8.780 39.598,9.403 C40.219,10.023 40.219,11.030 39.598,11.653 L26.265,24.985 ZM22.784,21.502 C22.473,21.814 22.065,21.968 21.659,21.968 C21.253,21.968 20.845,21.814 20.534,21.502 C19.914,20.883 19.914,19.873 20.534,19.253 L33.867,5.922 C34.490,5.298 35.495,5.298 36.117,5.922 C36.739,6.542 36.739,7.548 36.117,8.172 L22.784,21.502 Z"/>
</g>
</svg>  