<?xml version="1.0" encoding="utf-8"?>
<!-- Generator: Adobe Illustrator 23.0.1, SVG Export Plug-In . SVG Version: 6.00 Build 0)  -->
<svg version="1.1" id="Calque_1" xmlns="http://www.w3.org/2000/svg" xmlns:xlink="http://www.w3.org/1999/xlink" x="0px" y="0px"
	 viewBox="0 0 24 23.9" style="enable-background:new 0 0 24 23.9;" xml:space="preserve">
<style type="text/css">
	.st0{filter:url(#a);}
	.st1{fill-rule:evenodd;clip-rule:evenodd;}
</style>
<filter  id="a">
	<feFlood  flood-color="#FFF" flood-opacity="1" result="floodOut"></feFlood>
	<feComposite  in="floodOut" in2="SourceGraphic" operator="atop" result="compOut"></feComposite>
	<feBlend  in="compOut" in2="SourceGraphic" mode="normal"></feBlend>
</filter>
<g class="st0">
	<path class="st1" d="M20.2,21.7l1.9-3.3l1.9,3.3H20.2z M17.8,18h3.8l-1.9,3.3C19.7,21.4,17.8,18,17.8,18z M19.7,14.2l1.9,3.3h-3.8
		L19.7,14.2z M15.4,13.9h3.8l-1.9,3.3C17.3,17.2,15.4,13.9,15.4,13.9z M17.3,10l1.9,3.3h-3.8C15.4,13.3,17.3,10,17.3,10z M13.1,9.7
		h3.8L15,13C15,13,13.1,9.7,13.1,9.7z M15,5.8l1.9,3.3h-3.8C13.1,9.2,15,5.8,15,5.8z M10.7,5.5h3.8l-1.9,3.3
		C12.6,8.9,10.7,5.5,10.7,5.5z M12.6,1.7L14.5,5h-3.8C10.7,5,12.6,1.7,12.6,1.7z M8.3,9.2l1.9-3.3l1.9,3.3H8.3z M5.9,13.3L7.8,10
		l1.9,3.3H5.9z M3.5,17.5l1.9-3.3l1.9,3.3H3.5z M1.1,21.7L3,18.3L5,21.7H1.1z M7.3,18l-1.9,3.3L3.5,18H7.3z M9.7,13.9l-1.9,3.3
		l-1.9-3.3C5.9,13.9,9.7,13.9,9.7,13.9z M12.1,9.7L10.2,13L8.3,9.7C8.3,9.7,12.1,9.7,12.1,9.7z M14.5,21.7h-3.8l1.9-3.3
		C12.6,18.3,14.5,21.7,14.5,21.7z M16.9,18L15,21.4L13.1,18C13.1,18,16.9,18,16.9,18z M19.3,21.7h-3.8l1.9-3.3
		C17.3,18.3,19.3,21.7,19.3,21.7z"/>
</g>
</svg>
