<svg xmlns="http://www.w3.org/2000/svg" width="NaN%" height="NaN%"><defs><filter id="a"><feFlood flood-color="#FFF" flood-opacity="1" result="floodOut"/><feComposite operator="atop" in="floodOut" in2="SourceGraphic" result="compOut"/><feBlend in="compOut" in2="SourceGraphic"/></filter></defs><g filter="url(#a)"><path fill-rule="evenodd" d="M52.873 55.128l5.252-9.189 5.252 9.189H52.873zm-6.57-9.956h10.508l-5.254 9.187-5.254-9.187zm5.254-10.721l5.254 9.19H46.303l5.254-9.19zm-11.819-.765h10.505l-5.253 9.188-5.252-9.188zm5.252-10.719l5.253 9.187H39.738l5.252-9.187zm-11.822-.765h10.508l-5.254 9.188-5.254-9.188zm5.254-10.722l5.254 9.191H33.168l5.254-9.191zM26.6 10.713h10.508l-5.254 9.192-5.254-9.192zM31.854-.006l5.254 9.19H26.6l5.254-9.19zM20.032 20.671l5.254-9.191 5.254 9.191H20.032zm-6.567 11.483l5.253-9.187 5.253 9.187H13.465zM6.897 43.641l5.254-9.19 5.253 9.19H6.897zM.331 55.128l5.251-9.189 5.254 9.189H.331zm17.073-9.956l-5.253 9.187-5.254-9.187h10.507zm6.567-11.486l-5.253 9.188-5.253-9.188h10.506zm6.569-11.484l-5.254 9.188-5.254-9.188H30.54zm6.568 32.926H26.6l5.254-9.189 5.254 9.189zm6.568-9.956l-5.254 9.187-5.254-9.187h10.508zm6.567 9.956H39.738l5.252-9.189 5.253 9.189z"/></g></svg>